PathFileType	3	(X/Y/Z)	D:\minhoCalibration\240510\subject2_KPNP\preferred\preferred07.trc
DataRate	CameraRate	NumFrames	NumMarkers	Units	OrigDataRate	OrigDataStartFrame	OrigNumFrames
200.0	200.0	30	10	mm	200.0	435	181	
Frame#	Time	Left_Ankle_Outer1			Left_Ankle_Inner1			Left_Knee_Outer1			Left_Knee_Inner1			Left_Wrist1			Right_Wrist1			Right_Knee_Inner1			Right_Knee_Outer1			Right_Ankle_Inner1			Right_Ankle_Outer1			
		X1	Y1	Z1	X2	Y2	Z2	X3	Y3	Z3	X4	Y4	Z4	X5	Y5	Z5	X6	Y6	Z6	X7	Y7	Z7	X8	Y8	Z8	X9	Y9	Z9	X10	Y10	Z10	
435	2.165	-536.67743	91.42659	-777.14142	-555.02008	100.17212	-722.65253	-377.53531	512.83118	-773.06494	-435.01843	501.55103	-697.11902	-355.59158	978.50647	-846.15552	-630.17627	1084.7424	-664.64185	-532.94495	688.466	-340.52823	-614.73126	738.27722	-327.03918	-707.56018	323.10367	-445.60532	-795.70575	355.34357	-410.82166
436	2.17	-537.18439	90.884575	-776.57733	-555.15039	100.12588	-721.17017	-378.13278	512.29486	-772.69598	-436.07706	501.16141	-697.29193	-354.5791	978.76965	-845.31641	-632.18054	1081.2758	-666.83356	-539.69763	679.19702	-347.26614	-621.40778	726.98389	-338.95364	-711.28003	315.14307	-461.99649	-799.57733	345.32751	-434.09644
437	2.175	-537.57269	90.38401	-776.11047	-556.08502	99.102707	-720.85474	-378.77985	511.91437	-772.43915	-437.12042	500.88446	-697.42535	-353.65176	979.14856	-844.32727	-634.25769	1077.8733	-669.08734	-546.79999	670.16077	-354.53976	-628.08093	718.65179	-346.08255	-713.31281	308.3772	-478.98889	-803.03259	341.0668	-442.90988
438	2.18	-537.96552	89.736229	-775.68848	-556.35205	98.620888	-720.30078	-379.80377	511.46912	-772.14062	-438.22574	500.62479	-697.49823	-352.6293	979.57251	-843.39526	-636.33655	1074.5818	-671.43121	-553.99823	661.27496	-362.13162	-635.65784	709.42407	-354.3064	-716.66064	301.06256	-495.00784	-806.70227	329.46634	-469.83804
439	2.185	-538.22083	89.093216	-775.55273	-556.45526	97.515755	-721.47455	-380.65063	511.12277	-771.99963	-439.32025	500.2449	-697.52557	-351.67462	979.98499	-842.38049	-638.47217	1071.4749	-673.86169	-561.24866	652.64661	-369.90463	-643.46185	702.33667	-358.58942	-718.24982	294.06497	-512.32971	-810.52264	322.01849	-487.47763
440	2.19	-538.41235	88.446861	-775.57635	-556.52051	96.406334	-722.7204	-381.6528	510.79321	-771.86633	-440.21973	499.88617	-697.65631	-350.85486	980.34412	-841.33484	-640.62299	1068.5961	-676.4505	-568.5459	644.35638	-377.82471	-650.8689	692.06561	-371.17087	-720.2959	286.96872	-528.46692	-813.46509	314.8089	-507.66898
441	2.195	-538.58179	87.748749	-775.73499	-556.88062	96.656921	-720.83539	-382.49982	510.52438	-771.66632	-441.26038	499.70422	-697.80524	-350.15118	980.62683	-840.13501	-642.81128	1065.9067	-679.01654	-575.97223	636.39667	-385.89746	-657.83264	685.07788	-378.44638	-722.44238	281.42654	-544.45184	-815.61877	308.40451	-525.89288
442	2.2	-538.68427	87.070747	-775.94214	-557.90149	95.348175	-721.08246	-383.14627	510.20389	-771.48956	-442.46942	499.47028	-697.84918	-349.53769	980.85193	-839.36456	-645.0025	1063.3815	-681.5672	-583.34094	628.69	-394.09525	-665.48022	676.64099	-389.2789	-723.78412	275.11337	-561.05243	-818.16644	301.49527	-544.02515
443	2.205	-538.75867	86.382393	-776.28613	-558.59973	94.898071	-720.54926	-383.73376	509.81879	-771.2193	-443.48169	499.07495	-698.05695	-349.03867	981.09399	-838.31274	-647.25726	1061.1406	-684.17834	-590.85974	621.49902	-402.36093	-673.27515	669.01227	-398.91867	-724.89886	269.02808	-577.16461	-819.7356	295.36801	-563.73755
444	2.21	-538.87048	85.694481	-776.68231	-558.44781	94.038643	-722.29431	-384.16119	509.39484	-770.92059	-444.67966	498.55978	-698.20172	-349.5571	980.60376	-835.33105	-649.35992	1058.8153	-686.72095	-598.29761	614.77393	-410.44241	-681.50012	661.44482	-408.41721	-726.30621	263.2291	-592.14844	-821.38458	289.45227	-581.99597
445	2.215	-538.94263	85.040787	-777.08582	-558.94092	93.611107	-722.41656	-384.39853	508.91589	-770.55573	-445.68579	498.10928	-698.32971	-349.38242	980.60742	-833.88507	-651.6153	1056.8589	-689.29822	-605.50275	608.22473	-418.85785	-689.89685	654.82715	-416.08762	-727.16791	257.66397	-606.82739	-822.36389	284.20401	-600.27649
446	2.22	-539.01801	84.364403	-777.46271	-559.65723	93.054817	-722.47845	-384.3566	508.47394	-770.18054	-446.59509	497.65314	-698.41772	-349.74893	980.51044	-834.06146	-654.05402	1054.8928	-692.05426	-613.16357	601.82318	-427.87836	-697.29889	647.03491	-429.39941	-728.14148	252.37775	-621.75427	-822.86523	279.78949	-621.1944
447	2.225	-539.17279	83.838783	-777.79626	-559.7171	92.696419	-723.13873	-384.1795	508.04962	-769.67468	-447.30441	497.16602	-698.43298	-349.45364	980.47748	-832.16882	-656.22589	1052.9121	-694.61414	-620.47729	595.69861	-436.59204	-704.58514	641.91302	-436.94104	-728.50092	247.01495	-635.8891	-824.17432	274.01141	-635.61273
448	2.23	-539.27655	83.389488	-778.02728	-560.19104	92.45945	-722.92169	-383.82758	507.66302	-769.00012	-447.87711	496.65811	-698.27478	-349.47522	980.65411	-830.52606	-658.448	1050.9933	-697.20819	-627.66742	589.68921	-445.5784	-712.39972	634.42517	-449.61844	-728.72662	242.10367	-650.30249	-825.138	269.11542	-654.8172
449	2.235	-539.34552	83.075447	-778.12457	-560.24023	92.107895	-723.6026	-383.26315	507.27899	-768.32239	-448.27136	496.33429	-697.99066	-345.75906	983.7226	-823.40686	-660.62976	1048.9484	-699.7478	-634.68445	583.80499	-454.69382	-719.42816	628.34686	-460.53073	-729.03088	237.39246	-664.48541	-825.14905	264.80466	-670.55054
450	2.24	-539.36432	82.963608	-778.06299	-560.53149	92.274826	-722.83826	-382.79147	506.99942	-767.41974	-448.36176	496.12347	-697.64087	-349.7196	980.94446	-826.36993	-662.62677	1046.6146	-702.31775	-641.15552	578.19171	-464.10507	-726.13135	622.2688	-472.55829	-730.19305	232.47627	-677.62213	-825.28033	260.91306	-688.33978
451	2.245	-539.31934	82.946274	-777.91394	-560.41876	92.11499	-723.09271	-382.01752	506.84421	-766.42737	-448.30368	496.0806	-697.16809	-350.12024	981.32013	-825.16205	-664.99329	1044.5707	-705.08582	-647.60901	572.44513	-473.35266	-732.17108	617.74152	-481.76929	-730.71643	227.94893	-691.00189	-825.34949	256.73953	-704.91534
452	2.25	-539.20917	82.988853	-777.69659	-560.47968	92.132378	-722.61798	-381.21848	506.81906	-765.42041	-447.92606	496.14539	-696.63953	-350.1835	981.8833	-823.59839	-667.2771	1042.2767	-707.68964	-654.03046	567.00531	-483.01611	-738.86823	611.02454	-495.57483	-731.27362	223.40181	-705.00372	-825.1059	252.8024	-721.26044
453	2.255	-538.99707	83.142647	-777.47815	-560.26654	92.121727	-722.64862	-380.44516	506.89734	-764.27057	-447.54987	496.32626	-695.99078	-350.86066	982.39423	-822.3042	-669.57056	1040.0125	-710.66937	-660.22064	561.75958	-492.87115	-744.92542	605.39398	-507.79044	-731.54303	218.84511	-717.0105	-824.77271	249.09245	-737.47644
454	2.26	-538.83435	83.298447	-777.29407	-560.16571	92.127213	-722.87598	-379.91232	506.90271	-763.16956	-447.03238	496.48935	-695.37927	-351.41644	983.02765	-821.15369	-671.77148	1037.576	-713.59052	-666.32941	556.67242	-502.93411	-750.6261	600.51373	-518.45013	-732.14349	214.57104	-729.80402	-824.34314	245.47862	-753.25549
455	2.265	-538.65082	83.467354	-777.09271	-559.64117	91.932693	-723.95447	-379.01871	507.16074	-762.03821	-446.49423	496.74963	-694.75208	-352.10577	983.75366	-819.89832	-674.16266	1035.4108	-716.63568	-672.02783	551.63733	-513.02118	-755.51953	596.66742	-527.8338	-732.70209	210.43446	-742.27777	-823.87622	241.88652	-768.82404
456	2.27	-538.44965	83.640594	-776.99329	-559.56592	91.362633	-724.64648	-378.34845	507.40707	-761.02374	-445.94867	497.00613	-694.14294	-352.79059	984.65198	-818.75043	-675.97302	1032.6731	-719.58929	-677.66473	546.99176	-523.29004	-761.24536	591.95416	-538.39441	-733.1427	206.49507	-754.87921	-823.26508	238.59366	-784.08862
457	2.275	-538.27209	83.773277	-776.85461	-560.03693	91.846619	-721.95068	-377.99991	507.4845	-760.08136	-445.41245	497.2327	-693.55164	-353.48975	985.38483	-817.56769	-678.53546	1030.537	-722.93195	-683.07703	542.58533	-533.67072	-766.14294	586.00378	-554.20276	-733.56659	202.70778	-767.17963	-822.65149	235.42494	-799.00763
458	2.28	-538.07434	83.892052	-776.80402	-559.35382	92.11969	-722.29083	-377.86969	507.43591	-759.01221	-444.98566	497.33142	-693.07477	-354.47775	986.11615	-816.36798	-680.79822	1028.3733	-726.31036	-687.72589	538.20764	-544.21234	-771.46039	582.75403	-561.46985	-733.92474	199.1338	-779.49658	-821.97644	232.27919	-813.60486
459	2.285	-537.85419	83.936302	-776.75323	-559.32086	91.549026	-724.4201	-377.30341	507.5571	-758.26733	-444.65268	497.38046	-692.65424	-355.2269	987.04211	-814.93939	-683.05231	1026.3138	-729.86554	-693.26208	534.17493	-554.48889	-775.75641	577.13605	-579.00879	-734.25836	195.58112	-791.7149	-821.22357	229.1622	-827.82208
460	2.29	-537.70734	83.936928	-776.77582	-559.81274	91.900597	-722.21118	-377.20233	507.55872	-757.47205	-444.74823	497.12582	-692.22302	-355.48245	988.28949	-813.81287	-685.68506	1024.3278	-733.72021	-698.20795	530.32837	-564.83429	-779.77203	575.10913	-585.62518	-734.5213	192.12401	-803.65277	-820.51666	226.26305	-841.80963
461	2.295	-537.52118	83.906227	-776.87262	-559.09039	91.570045	-724.01764	-376.89749	507.51425	-756.95392	-444.94443	497.08871	-691.94415	-356.42599	988.98315	-812.61169	-688.2533	1022.0803	-737.91565	-702.73657	526.7597	-575.40045	-783.47485	569.39972	-603.85999	-734.58014	188.8373	-815.49744	-819.47321	223.25824	-855.40967
462	2.3	-537.37097	83.879944	-776.99579	-559.95618	92.066704	-722.39758	-376.78265	507.43573	-756.33246	-445.12784	496.79178	-691.67383	-357.28738	989.68536	-811.40857	-690.3338	1020.5389	-741.34338	-707.21063	523.33813	-585.94159	-787.18402	565.92371	-615.0672	-734.58105	185.94514	-827.14447	-818.45728	220.48178	-868.71332
463	2.305	-537.26263	83.85154	-777.12592	-560.04596	91.801483	-721.79755	-376.76202	507.26123	-755.68048	-446.02628	497.26587	-691.03937	-358.0582	990.39191	-810.22583	-692.69611	1018.4899	-745.4585	-711.11182	520.20575	-595.41339	-790.58899	564.89532	-622.14954	-734.49017	182.93294	-837.92859	-817.41144	217.95235	-882.01392
464	2.31	-537.16473	83.905289	-777.21857	-560.15063	91.964012	-722.5011	-376.70386	507.15607	-754.94153	-446.6749	497.12308	-690.7832	-359.08521	990.91846	-809.07129	-694.73224	1017.1744	-749.84247	-714.84607	516.49744	-606.35248	-793.85144	562.02539	-633.76544	-734.29657	180.0463	-848.9873	-816.19836	215.36014	-894.67981
